<svg xmlns="http://www.w3.org/2000/svg" width="400" height="174" viewBox="0 0 400 174" role="img" aria-label="Contribution activity in the last 30 days"><style>text{font-family:-apple-system,BlinkMacSystemFont,'Segoe UI',Ubuntu,'Helvetica Neue',Arial,sans-serif}.n{font-variant-numeric:tabular-nums}.card{fill:#ffffff;stroke:#d0d7de}.tt{fill:#0969da}.tp{fill:#1f2328}.tm{fill:#57606a}.gl{stroke:#eaeef2}.ax{stroke:#d0d7de}.ac{fill:#0969da}.acs{stroke:#0969da}.act{fill:#0550ae}.bar{fill:#0969da}.dot{fill:#0969da;stroke:#ffffff}.area{fill:#0969da}.h0{fill:#ebedf0}.h1{fill:#b6e3ff}.h2{fill:#54aeff}.h3{fill:#0969da}.h4{fill:#0550ae}@media(prefers-color-scheme:dark){.card{fill:#0d1117;stroke:#30363d}.tt{fill:#58a6ff}.tp{fill:#c9d1d9}.tm{fill:#8b949e}.gl{stroke:#21262d}.ax{stroke:#30363d}.ac{fill:#58a6ff}.acs{stroke:#58a6ff}.act{fill:#58a6ff}.bar{fill:#58a6ff}.dot{fill:#58a6ff;stroke:#0d1117}.area{fill:#58a6ff}.h0{fill:#161b22}.h1{fill:#0d419d}.h2{fill:#1158c7}.h3{fill:#388bfd}.h4{fill:#79c0ff}}</style><rect class="card" x="0.5" y="0.5" width="399" height="173" rx="6"/><text class="tt" x="20" y="24" font-size="14" font-weight="500">Contribution activity - last 30 days</text><line class="gl" x1="42" y1="92" x2="380" y2="92"/><text class="tm n" x="38" y="96" font-size="11" text-anchor="end">100</text><line class="gl" x1="42" y1="44" x2="380" y2="44"/><text class="tm n" x="38" y="48" font-size="11" text-anchor="end">200</text><line class="ax" x1="42" y1="140.5" x2="380" y2="140.5"/><path class="area" d="M42,61.28 L53.66,124.64 L65.31,129.92 L76.97,138.56 L88.62,128.48 L100.28,129.44 L111.93,111.2 L123.59,128.96 L135.24,85.76 L146.9,135.2 L158.55,137.12 L170.21,128 L181.86,132.8 L193.52,133.76 L205.17,116.96 L216.83,119.84 L228.48,123.68 L240.14,125.12 L251.79,68 L263.45,84.8 L275.1,125.6 L286.76,127.04 L298.41,126.08 L310.07,131.36 L321.72,132.32 L333.38,124.64 L345.03,119.84 L356.69,133.28 L368.34,135.2 L380,135.68 L380,140 L42,140 Z" opacity="0.12"/><path class="acs" d="M42,61.28 L53.66,124.64 L65.31,129.92 L76.97,138.56 L88.62,128.48 L100.28,129.44 L111.93,111.2 L123.59,128.96 L135.24,85.76 L146.9,135.2 L158.55,137.12 L170.21,128 L181.86,132.8 L193.52,133.76 L205.17,116.96 L216.83,119.84 L228.48,123.68 L240.14,125.12 L251.79,68 L263.45,84.8 L275.1,125.6 L286.76,127.04 L298.41,126.08 L310.07,131.36 L321.72,132.32 L333.38,124.64 L345.03,119.84 L356.69,133.28 L368.34,135.2 L380,135.68" fill="none" stroke-width="2" stroke-linejoin="round" stroke-linecap="round"/><text class="tp n" x="42" y="53.28" font-size="11" text-anchor="middle">164</text><circle class="dot" cx="42" cy="61.28" r="4" stroke-width="2"/><text class="tm n" x="42" y="158" font-size="11">9/5</text><text class="tm n" x="380" y="158" font-size="11" text-anchor="end">10/4</text></svg>